<svg id="Capa_1" enable-background="new 0 0 512 512" height="512" viewBox="0 0 512 512" width="512" xmlns="http://www.w3.org/2000/svg"><g><path clip-rule="evenodd" d="m343.814 377.626 138.466 129.608c7.119 6.663 18.292 6.294 24.955-.825s6.294-18.291-.824-24.954l-136.858-128.101c33.681-37.512 54.171-87.109 54.171-141.492 0-117.008-94.854-211.862-211.862-211.862s-211.862 94.854-211.862 211.862 94.854 211.862 211.862 211.862c49.89 0 95.752-17.244 131.952-46.098zm-131.952 10.788c-97.507 0-176.552-79.045-176.552-176.552s79.045-176.552 176.552-176.552 176.552 79.045 176.552 176.552-79.045 176.552-176.552 176.552z" fill-rule="evenodd"/></g></svg>